<?xml version="1.0" encoding="UTF-8"?>
<svg id="Layer_2" data-name="Layer 2" xmlns="http://www.w3.org/2000/svg" viewBox="0 0 729.72 355.82">
  <defs>
    <style>
      .cls-1 {
        fill: #231f20;
      }

      .cls-2 {
        fill: none;
        stroke: #231f20;
        stroke-miterlimit: 10;
        stroke-width: 10px;
      }
    </style>
  </defs>
  <g id="Layer_1-2">
    <g>
      <g>
        <path class="cls-1" d="M38.55,58.76l31.4,59.95,48.53,12.85s19.98,32.83,28.55,159.86l42.82-17.13s5.71-108.48,4.28-124.18l44.25-4.28s7.14-38.54,11.42-42.82c4.28-4.28-211.24-44.25-211.24-44.25Z"/>
        <path class="cls-1" d="M213.93,158.7c-1.82,9.12-3.8,22.24-3.97,38.08-.17,16.36-.43,36.88,7,54.67,16.3,39,69.38,67.27,108.48,54.24,42.82-14.27,38.54-39.97,31.4-78.5-7.14-38.54-41.39-145.59-41.39-145.59-3.58,3.96-43.12,20.27-48.53,19.98,.85,15.49,4.31,37.63,17.45,59.31,21.1,34.82,53.47,45.91,49.97,66.67-1.57,9.34-9.78,16.96-16.99,20.59-8.57,4.32-19.39,4.86-27.96,.7-8.18-3.97-13.1-11.99-20.11-34.18-4.8-15.2-10.18-37.68-11.06-66.35-14.77,3.46-29.53,6.92-44.3,10.38Z"/>
        <path class="cls-1" d="M505.94,169.92c-26.2-14.67-97.47-15.72-160.35-47.16l38.78,172.93s17.82,6.29,33.54-4.19c15.72-10.48,69.17-45.07,80.7-59.74,11.53-14.67,33.54-47.16,7.34-61.84Zm-28.78,42.03c-11.86,12.96-47.19,20.37-47.19,20.37l-20.71-58.69s36.42,5.01,57.35,15.02c7.89,3.78,13.58,8.26,14.29,13.46,.49,3.56-1,6.85-3.74,9.84Z"/>
        <path class="cls-1" d="M674.93,137.9c-7.34-57.47-22.77-65.91-27.18-67.94-11.47-5.27-25.13-2.4-32.77-.8-16.71,3.51-29.34,11.87-40.77,21.58-18.33,15.59-58.15,49.4-69.54,108.71-4.31,22.45-10.23,53.27,7.99,78.33,12.8,17.6,31.41,23.99,38.37,26.38,37.2,12.77,69.47-3.07,74.34-5.6,3.92-2.04,18.72-10.09,31.97-27.18,29.73-38.35,23.64-86.09,17.59-133.49Zm-48.13,78.71c-6.07,5.29-15.24,3.8-24.22,2.34-16.56-2.69-48.28-14.47-48.44-36.72-.05-7.93,3.91-15.74,10.44-22.34,4.74-4.79,10.82-8.94,17.69-12.04,6.73-2.62,15.17-4.31,23.44-1.56,26.25,8.73,36,57.32,21.09,70.31Z"/>
      </g>
      <circle class="cls-2" cx="483.99" cy="126.34" r="10.44"/>
      <circle class="cls-2" cx="533.11" cy="66.5" r="10.44"/>
      <circle class="cls-2" cx="268.4" cy="338.63" r="10.44"/>
      <circle class="cls-2" cx="199.77" cy="302.58" r="10.44"/>
      <polyline class="cls-2" points="473.55 126.34 342.73 86.65 306.64 47.29 255.25 73.53 7.04 12.3 43.13 145.7 94.52 176.31 95.61 338.14 189.32 302.58"/>
      <polyline class="cls-2" points="542.15 61.28 705.33 6.75 724.56 226.15 626.83 350.02 488.4 306.47 279.68 338.81"/>
    </g>
  </g>
</svg>