<?xml version="1.0" standalone="no"?>
<!DOCTYPE svg PUBLIC "-//W3C//DTD SVG 20010904//EN"
 "http://www.w3.org/TR/2001/REC-SVG-20010904/DTD/svg10.dtd">
<svg version="1.0" xmlns="http://www.w3.org/2000/svg"
 width="700.000000pt" height="700.000000pt" viewBox="0 0 700.000000 700.000000"
 preserveAspectRatio="xMidYMid meet">
<metadata>
Created by potrace 1.14, written by Peter Selinger 2001-2017
</metadata>
<g transform="translate(0.000000,700.000000) scale(0.100000,-0.100000)"
fill="#000000" stroke="none">
<path d="M1570 6980 c-146 -22 -260 -51 -380 -97 -639 -241 -1095 -819 -1177
-1493 -10 -82 -11 -3669 -1 -3768 18 -176 82 -398 164 -572 234 -494 679 -860
1209 -994 223 -56 167 -55 2120 -54 990 0 1827 3 1860 8 178 23 276 46 420 98
263 94 535 270 708 460 23 25 49 52 58 61 27 28 115 144 156 208 82 123 201
386 219 482 3 14 7 28 10 33 3 5 7 18 10 31 2 12 6 33 9 47 18 84 27 133 33
195 9 93 9 3659 0 3753 -34 332 -189 692 -413 962 -74 88 -185 196 -270 263
-33 26 -65 52 -72 57 -35 29 -148 96 -242 144 -163 83 -323 134 -576 182 -22
4 -870 9 -1885 10 -1725 2 -1852 1 -1960 -16z"/>
</g>
</svg>
